<?xml version="1.0" ?><svg enable-background="new 0 0 515.91 728.5" height="512" id="Layer_1" version="1.1" viewBox="0 0 512.00003 512" width="512" xml:space="preserve" xmlns="http://www.w3.org/2000/svg" xmlns:cc="http://creativecommons.org/ns#" xmlns:dc="http://purl.org/dc/elements/1.1/" xmlns:inkscape="http://www.inkscape.org/namespaces/inkscape" xmlns:rdf="http://www.w3.org/1999/02/22-rdf-syntax-ns#" xmlns:sodipodi="http://sodipodi.sourceforge.net/DTD/sodipodi-0.dtd" xmlns:svg="http://www.w3.org/2000/svg"><defs id="defs7"/><g id="g6718" transform="translate(136.1786,108.25001)"><path d="m -733.62329,72.267944 c 0,203.804876 -165.21649,369.021366 -369.02141,369.021366 -203.8048,0 -369.0213,-165.21649 -369.0213,-369.021366 0,-203.804874 165.2165,-369.021364 369.0213,-369.021364 203.80492,0 369.02141,165.21649 369.02141,369.021364 z" id="path5050" style="fill:#e03127;fill-opacity:1;fill-rule:nonzero;stroke:none" transform="matrix(0.69372682,0,0,0.69372682,884.75558,97.615782)"/><path d="m 119.80432,-76.250028 c -123.7103013,0 -223.98301,100.2726 -223.98301,223.982908 0,123.71031 100.2727087,224.01711 223.98301,224.01711 123.71031,0 224.01712,-100.3068 224.01712,-224.01711 0,-123.710308 -100.30681,-223.982908 -224.01712,-223.982908 z m 0.035,4.8283 c 121.0485,0 219.12041,98.1475 219.12041,219.188908 -0.011,43.9313 -12.887,84.8494 -35.1333,119.16531 -8.4494,-1.9504 -17.40131,-3.1503 -26.46971,-3.1503 -15.5027,0 -29.6229,2.6672 -40.03,6.9855 -1.1299,0.5758 -1.9861,1.783 -1.9861,3.1504 0,0.4895 0.1895,0.9523 0.3767,1.3697 1.2307,3.5699 -0.8205,7.4812 -10.8893,9.6907 -14.9268,3.2746 -24.3736,18.6816 -29.757,23.7988 -6.3335,6.0173 -24.1891,9.7134 -21.5046,6.1295 2.1016,-2.7998 10.1386,-11.5141 15.0327,-20.9566 4.3758,-8.4496 8.2524,-10.8685 13.6286,-18.9364 1.569,-2.3607 7.6734,-10.6676 9.4511,-17.2241 2.0079,-6.4272 1.3872,-14.4885 2.1572,-17.8064 1.0797,-4.7645 5.6002,-15.13241 5.9241,-20.99091 0.2015,-3.2891 -13.8614,4.7255 -20.5115,4.7255 -6.6501,0 -13.1357,-3.951 -19.0733,-4.2461 -7.3483,-0.3527 -12.0321,5.6736 -18.6967,4.6228 -3.7857,-0.6189 -7.0271,-3.9257 -13.6628,-4.1776 -9.4499,-0.3671 -20.9673,5.2182 -42.66681,4.52 -21.346701,-0.7053 -41.063501,-26.938 -43.762401,-31.1268 -3.1523,-4.9084 -7.0429,-4.9048 -11.2317,-1.0615 -4.2031,3.8505 -9.3453,0.823 -10.8207,-1.7464 -2.7997,-4.9084 -10.3353,-19.244 -21.9155,-22.2236 -16.0280003,-4.16 -24.1160003,8.8662 -23.0797003,19.2445 1.0796,10.515 7.8468,13.4325 10.992,19.039 3.1523,5.5922 4.8020003,9.2552 10.7179003,11.7454 4.2032,1.7417 5.7724,4.2842 4.5201,7.7389 -1.1083,2.994 -5.4691,3.6839 -8.3552,3.8352 -6.1103003,0.295 -10.3681003,-1.3406 -13.4917003,-3.3558 -3.6273,-2.3031 -6.5853,-5.5438 -9.7591997,-10.992 -3.6633,-6.0312 -9.482,-8.6635 -16.1969,-8.6635 -3.2099,0 -6.179,0.9125 -8.8347,2.2943 -10.558209,5.4698 -23.123709,8.6977 -36.64001,8.6977 l -15.238001,0 c -7.405801,-22.0016 -11.402801,-45.5818 -11.402801,-70.0952 0,-121.041408 98.1331117,-219.188908 219.188823,-219.188908 z m 35.7496,45.132103 c -0.9354,0 -1.9018,0.033 -2.8422,0.068 -5.0156,0.1904 -10.0918,0.9267 -15.0327,2.1916 -7.2834,1.864 -21.47251,9.3006 -47.871511,3.3558 -45.6947,-10.2847 -52.4699,12.5709974 -55.0968,22.5317974 -2.6198,9.9679996 -8.9033,38.3177996 -8.9033,38.3177996 -2.0942,11.5226 -4.8461,31.57451 66.0889,45.09801 33.049211,6.2903 34.699611,14.866098 36.160511,20.990898 2.6126,11.0188 6.8114,17.2564 11.5399,20.4087 4.7214,3.1524 -0.027,5.7609 -5.2734,6.3007 -14.0705,1.461 -66.037011,-13.4395 -96.804811,-30.9213 -25.1827,-15.387498 -25.6059,-29.235898 -19.8266,-40.988808 -38.0368,-4.1024 -66.598409,3.56581 -71.773109,21.57311 -8.888401,30.882798 67.954609,83.654098 155.42861,110.125198 91.77781,27.8025 186.17081,8.3769 196.65702,-49.3441 4.7717,-26.1903 -17.35971,-45.560598 -54.58321,-53.966798 -2.1663,7.2979 -5.2403,16.615898 -18.9364,23.661798 -2.0008,1.0148 -2.7559,-0.6766 -1.8491,-2.26 5.1963,-8.8021 6.1518,-10.974298 7.6704,-14.450498 2.1016,-5.074 3.1614,-12.3091 -1.0272,-27.3943 -8.2335,-29.65941 -25.3784,-69.34160955 -37.8727,-82.217306 -8.4865,-8.724301 -21.821,-13.045801 -35.8523,-13.080801 z m 1.3012,10.2387 c 0.4174,0 0.8081,-0.015 1.2328,0 14.0415,0.3166 25.2998,5.934801 25.1342,12.4985974 -0.1727,6.5638 -11.6874,11.6096 -25.7507,11.3002 -4.5413,-0.1151 -8.801,-0.7425 -12.4643,-1.8149 -0.4462,-0.1081 -0.7533,-0.4927 -0.7533,-0.9245 0,-0.4463 0.3071,-0.8167 0.7533,-0.9246 8.7733,-2.0224 14.6696,-5.3129 14.245,-8.458 -0.547,-4.152796 -11.9912,-6.4281964 -25.5794,-5.067996 -1.497,0.1584 -2.9455,0.3735 -4.3489,0.5822 l -0.103,0 c -0.3959,0 -0.7192,-0.2836 -0.7192,-0.6506 0,-0.2663 0.1735,-0.5085004 0.411,-0.6164004 4.9012,-2.591 12.2096,-4.656701 20.58,-5.513101 2.519,-0.2519 4.9871,-0.3821 7.3622,-0.4109 z M 52.688919,10.350272 c 2.2455,-0.091 4.3217,1.1122 5.3077,2.3286 2.3966,2.9868 7.4921,7.8774 14.1423,7.7046 6.6357,-0.1583 14.3366,-1.5752 25.0316,-1.5752 10.824501,0 18.115101,4.0446 18.525401,7.4992 0.3526,2.9725 -0.8742,5.7994 -12.9439,6.6774 -25.312301,1.8353 -27.959001,4.5699 -32.701901,9.6223 -6.6862,7.1251 -15.4779,-9.2456 -15.4779,-9.2456 -5.297,-1.1156 -11.6999,-9.648 -8.2525,-17.6009 1.7058,-3.9332 4.1238,-5.3195 6.3692,-5.4104 z M 167.60823,246.62649 c 0.1727,0 0.3372,0.09 0.445,0.2054 1.1373,1.094 3.0943,4.7784 0.7192,9.4853 -1.3243,2.4759 -2.7653,4.2153 -5.3419,6.2665 -3.0732,2.4758 -9.0845,5.3282 -17.3612,0.1027 -4.4334,-2.8286 -4.723,-3.7638 -10.855,-2.9792 -4.3902,0.5758 -6.1233,-3.8342 -4.5542,-7.5334 1.5833,-3.6562 8.0675,-6.6444 16.1284,-1.9519 3.6201,2.1376 9.2393,6.6654 14.1765,2.671 2.0656,-1.6482 3.2866,-2.7377 6.1295,-6.0268 0.1439,-0.144 0.3121,-0.2397 0.5137,-0.2397 z" id="path5682" style="fill:#ffffff;fill-opacity:1;fill-rule:nonzero;stroke:none"/></g></svg>